Bopomo_Ligasystem.glyphspackage
{
color = 0;
glyphname = caron;
layers = (
{
background = {
shapes = (
{
closed = 1;
nodes = (
(443,818,l),
(300,577,l),
(150,819,l),
(33,819,l),
(300,414,l),
(565,818,l)
);
}
);
};
hints = (
{
horizontal = 1;
place = (414, 405);
place = (414, 405);
type = Stem;
},
{
place = (33, 532);
place = (33, 532);
type = Stem;
}
);
layerId = m01;
shapes = (
{
closed = 1;
nodes = (
(443,818,l),
(300,577,l),
(150,819,l),
(33,819,l),
(300,414,l),
(565,818,l)
);
}
);
vertWidth = 1000;
width = 600;
}
);
note = cid00245;
unicode = 711;
}
{
color = 0;
glyphname = secondtonechinese;
layers = (
{
background = {
shapes = (
{
closed = 1;
nodes = (
(441,852,l),
(108,558,l),
(183,476,l),
(492,792,l)
);
}
);
};
hints = (
{
horizontal = 1;
place = (476, 376);
place = (476, 376);
type = Stem;
},
{
place = (108, 384);
place = (108, 384);
type = Stem;
}
);
layerId = m01;
shapes = (
{
closed = 1;
nodes = (
(441,852,l),
(108,558,l),
(183,476,l),
(492,792,l)
);
}
);
vertWidth = 1000;
width = 600;
}
);
note = cid00247;
unicode = 714;
}
{
color = 0;
glyphname = fourthtonechinese;
layers = (
{
background = {
shapes = (
{
closed = 1;
nodes = (
(180,828,l),
(104,752,l),
(443,465,l),
(502,524,l)
);
}
);
};
hints = (
{
horizontal = 1;
place = (465, 363);
place = (465, 363);
type = Stem;
},
{
place = (104, 398);
place = (104, 398);
type = Stem;
}
);
layerId = m01;
shapes = (
{
closed = 1;
nodes = (
(180,828,l),
(104,752,l),
(443,465,l),
(502,524,l)
);
}
);
vertWidth = 1000;
width = 600;
}
);
note = cid00248;
unicode = 715;
}
{
color = 0;
glyphname = dotaccent;
layers = (
{
background = {
shapes = (
{
closed = 1;
nodes = (
(311,287,o),
(347,330,o),
(346,381,cs),
(347,434,o),
(311,482,o),
(251,482,cs),
(191,482,o),
(153,434,o),
(154,381,cs),
(154,332,o),
(194,287,o),
(251,286,cs)
);
}
);
};
hints = (
{
horizontal = 1;
place = (286, 196);
place = (286, 196);
type = Stem;
},
{
place = (154, 192);
place = (154, 192);
type = Stem;
}
);
layerId = m01;
shapes = (
{
closed = 1;
nodes = (
(311,287,o),
(347,330,o),
(346,381,cs),
(347,434,o),
(311,482,o),
(251,482,cs),
(191,482,o),
(153,434,o),
(154,381,cs),
(154,332,o),
(194,287,o),
(251,286,cs)
);
}
);
vertWidth = 1000;
width = 500;
}
);
note = cid00249;
unicode = 729;
}
{
color = 0;
glyphname = "b-bopomofo";
layers = (
{
background = {
shapes = (
{
closed = 1;
nodes = (
(291,502,l),
(318,565,o),
(345,643,o),
(359,715,c),
(258,743,l),
(247,654,o),
(214,561,o),
(205,537,cs),
(194,511,o),
(182,494,o),
(168,489,c),
(179,464,o),
(195,418,o),
(201,397,c),
(211,406,o),
(252,411,o),
(303,411,cs),
(724,411,l),
(699,143,o),
(669,18,o),
(630,-16,cs),
(616,-27,o),
(601,-30,o),
(577,-29,cs),
(547,-29,o),
(475,-28,o),
(401,-22,c),
(421,-50,o),
(435,-92,o),
(437,-121,c),
(504,-125,o),
(572,-126,o),
(610,-122,cs),
(656,-119,o),
(685,-110,o),
(714,-78,cs),
(766,-27,o),
(797,112,o),
(828,456,cs),
(830,470,o),
(832,502,o),
(832,502,c)
);
}
);
};
hints = (
{
horizontal = 1;
place = (-41, 92);
place = (-41, 92);
type = Stem;
},
{
horizontal = 1;
place = (491, 91);
place = (491, 91);
type = Stem;
},
{
place = (168, 664);
place = (168, 664);
type = Stem;
}
);
layerId = m01;
shapes = (
{
closed = 1;
nodes = (
(291,502,l),
(318,565,o),
(345,643,o),
(359,715,c),
(258,743,l),
(247,654,o),
(214,561,o),
(205,537,cs),
(194,511,o),
(182,494,o),
(168,489,c),
(179,464,o),
(195,418,o),
(201,397,c),
(211,406,o),
(252,411,o),
(303,411,cs),
(724,411,l),
(699,143,o),
(669,18,o),
(630,-16,cs),
(616,-27,o),
(601,-30,o),
(577,-29,cs),
(547,-29,o),
(475,-28,o),
(401,-22,c),
(421,-50,o),
(435,-92,o),
(437,-121,c),
(504,-125,o),
(572,-126,o),
(610,-122,cs),
(656,-119,o),
(685,-110,o),
(714,-78,cs),
(766,-27,o),
(797,112,o),
(828,456,cs),
(830,470,o),
(832,502,o),
(832,502,c)
);
}
);
vertWidth = 1000;
width = 1000;
}
);
note = cid01649;
unicode = 12549;
}
{
color = 0;
glyphname = "p-bopomofo";
layers = (
{
background = {
shapes = (
{
closed = 1;
nodes = (
(749,521,l),
(732,516,l),
(314,516,l),
(338,576,o),
(364,651,o),
(376,719,c),
(274,742,l),
(264,659,o),
(233,572,o),
(224,549,cs),
(214,525,o),
(202,509,o),
(189,504,c),
(200,479,o),
(216,434,o),
(222,413,c),
(222,412,l),
(231,421,o),
(270,425,o),
(317,425,cs),
(687,425,l),
(650,338,o),
(598,262,o),
(535,196,c),
(462,255,o),
(387,312,o),
(321,360,c),
(247,302,l),
(315,251,o),
(390,191,o),
(463,130,c),
(354,41,o),
(222,-22,o),
(84,-57,c),
(103,-77,o),
(126,-116,o),
(137,-142,c),
(284,-99,o),
(422,-32,o),
(538,66,c),
(623,-9,o),
(699,-83,o),
(748,-141,c),
(831,-70,l),
(778,-11,o),
(698,61,o),
(611,134,c),
(700,229,o),
(772,345,o),
(816,488,c)
);
}
);
};
hints = (
{
horizontal = 1;
place = (505, 91);
place = (505, 91);
type = Stem;
},
{
place = (84, 747);
place = (84, 747);
type = Stem;
}
);
layerId = m01;
shapes = (
{
closed = 1;
nodes = (
(749,521,l),
(732,516,l),
(314,516,l),
(338,576,o),
(364,651,o),
(376,719,c),
(274,742,l),
(264,659,o),
(233,572,o),
(224,549,cs),
(214,525,o),
(202,509,o),
(189,504,c),
(200,479,o),
(216,434,o),
(222,413,c),
(222,412,l),
(231,421,o),
(270,425,o),
(317,425,cs),
(687,425,l),
(650,338,o),
(598,262,o),
(535,196,c),
(462,255,o),
(387,312,o),
(321,360,c),
(247,302,l),
(315,251,o),
(390,191,o),
(463,130,c),
(354,41,o),
(222,-22,o),
(84,-57,c),
(103,-77,o),
(126,-116,o),
(137,-142,c),
(284,-99,o),
(422,-32,o),
(538,66,c),
(623,-9,o),
(699,-83,o),
(748,-141,c),
(831,-70,l),
(778,-11,o),
(698,61,o),
(611,134,c),
(700,229,o),
(772,345,o),
(816,488,c)
);
}
);
vertWidth = 1000;
width = 1000;
}
);
note = cid01650;
unicode = 12550;
}
{
color = 0;
glyphname = "m-bopomofo";
layers = (
{
background = {
shapes = (
{
closed = 1;
nodes = (
(131,667,l),
(131,-113,l),
(231,-113,l),
(231,571,l),
(771,571,l),
(771,-113,l),
(876,-113,l),
(876,667,l)
);
}
);
};
hints = (
{
horizontal = 1;
place = (651, 96);
place = (651, 96);
type = Stem;
},
{
place = (131, 100);
place = (131, 100);
type = Stem;
},
{
place = (771, 105);
place = (771, 105);
type = Stem;
}
);
layerId = m01;
shapes = (
{
closed = 1;
nodes = (
(131,667,l),
(131,-113,l),
(231,-113,l),
(231,571,l),
(771,571,l),
(771,-113,l),
(876,-113,l),
(876,667,l)
);
}
);
vertWidth = 1000;
width = 1000;
}
);
note = cid01651;
unicode = 12551;
}
{
color = 0;
glyphname = "f-bopomofo";
layers = (
{
background = {
shapes = (
{
closed = 1;
nodes = (
(331,2,ls),
(248,2,o),
(225,28,o),
(225,94,cs),
(225,562,l),
(885,562,l),
(885,656,l),
(122,656,l),
(122,99,ls),
(122,-49,o),
(186,-94,o),
(342,-94,cs),
(727,-94,ls),
(798,-94,o),
(877,-92,o),
(908,-85,c),
(903,-60,o),
(897,-14,o),
(895,13,c),
(857,6,o),
(781,2,o),
(727,2,cs)
);
}
);
};
hints = (
{
horizontal = 1;
place = (-14, 96);
place = (-14, 96);
type = Stem;
},
{
horizontal = 1;
place = (642, 94);
place = (642, 94);
type = Stem;
},
{
place = (122, 103);
place = (122, 103);
type = Stem;
}
);
layerId = m01;
shapes = (
{
closed = 1;
nodes = (
(331,2,ls),
(248,2,o),
(225,28,o),
(225,94,cs),
(225,562,l),
(885,562,l),
(885,656,l),
(122,656,l),
(122,99,ls),
(122,-49,o),
(186,-94,o),
(342,-94,cs),
(727,-94,ls),
(798,-94,o),
(877,-92,o),
(908,-85,c),
(903,-60,o),
(897,-14,o),
(895,13,c),
(857,6,o),
(781,2,o),
(727,2,cs)
);
}
);
vertWidth = 1000;
width = 1000;
}
);
note = cid01652;
unicode = 12552;
}
{
color = 0;
glyphname = "d-bopomofo";
layers = (
{
background = {
shapes = (
{
closed = 1;
nodes = (
(287,502,l),
(315,565,o),
(344,644,o),
(359,716,c),
(256,745,l),
(245,657,o),
(213,565,o),
(204,540,cs),
(193,515,o),
(181,497,o),
(167,493,c),
(178,467,o),
(195,421,o),
(201,399,c),
(210,408,o),
(251,413,o),
(302,413,cs),
(442,413,l),
(399,167,o),
(291,21,o),
(72,-59,c),
(92,-77,o),
(126,-116,o),
(138,-136,c),
(369,-37,o),
(489,128,o),
(541,413,c),
(757,413,l),
(735,136,o),
(711,15,o),
(678,-16,cs),
(665,-28,o),
(652,-31,o),
(632,-31,cs),
(606,-31,o),
(547,-30,o),
(485,-24,c),
(503,-51,o),
(515,-92,o),
(517,-120,c),
(576,-123,o),
(635,-123,o),
(668,-120,cs),
(709,-116,o),
(734,-107,o),
(761,-77,cs),
(805,-29,o),
(831,106,o),
(856,458,c),
(858,470,o),
(859,502,o),
(859,502,c)
);
}
);
};
hints = (
{
horizontal = 1;
place = (-40, 89);
place = (-40, 89);
type = Stem;
},
{
horizontal = 1;
place = (493, 89);
place = (493, 89);
type = Stem;
},
{
place = (72, 787);
place = (72, 787);
type = Stem;
}
);
layerId = m01;
shapes = (
{
closed = 1;
nodes = (
(287,502,l),
(315,565,o),
(344,644,o),
(359,716,c),
(256,745,l),
(245,657,o),
(213,565,o),
(204,540,cs),
(193,515,o),
(181,497,o),
(167,493,c),
(178,467,o),
(195,421,o),
(201,399,c),
(210,408,o),
(251,413,o),
(302,413,cs),
(442,413,l),
(399,167,o),
(291,21,o),
(72,-59,c),
(92,-77,o),
(126,-116,o),
(138,-136,c),
(369,-37,o),
(489,128,o),
(541,413,c),
(757,413,l),
(735,136,o),
(711,15,o),
(678,-16,cs),
(665,-28,o),
(652,-31,o),
(632,-31,cs),
(606,-31,o),
(547,-30,o),
(485,-24,c),
(503,-51,o),
(515,-92,o),
(517,-120,c),
(576,-123,o),
(635,-123,o),
(668,-120,cs),
(709,-116,o),
(734,-107,o),
(761,-77,cs),
(805,-29,o),
(831,106,o),
(856,458,c),
(858,470,o),
(859,502,o),
(859,502,c)
);
}
);
vertWidth = 1000;
width = 1000;
}
);
note = cid01653;
unicode = 12553;
}
{
color = 0;
glyphname = "t-bopomofo";
layers = (
{
background = {
shapes = (
{
closed = 1;
nodes = (
(926,418,l),
(926,512,l),
(522,512,l),
(547,582,o),
(570,654,o),
(591,725,c),
(484,752,l),
(464,672,o),
(438,590,o),
(412,512,c),
(73,512,l),
(73,418,l),
(378,418,l),
(325,276,o),
(273,160,o),
(249,117,cs),
(209,40,o),
(183,-9,o),
(155,-19,c),
(168,-46,o),
(188,-97,o),
(194,-116,c),
(235,-98,o),
(294,-91,o),
(742,-30,c),
(769,-73,o),
(792,-113,o),
(809,-146,c),
(899,-94,l),
(850,-5,o),
(752,136,o),
(668,244,c),
(584,204,l),
(617,159,o),
(653,107,o),
(688,54,c),
(302,8,l),
(366,127,o),
(430,268,o),
(487,418,c)
);
}
);
};
hints = (
{
horizontal = 1;
place = (498, 94);
place = (498, 94);
type = Stem;
},
{
place = (73, 853);
place = (73, 853);
type = Stem;
}
);
layerId = m01;
shapes = (
{
closed = 1;
nodes = (
(926,418,l),
(926,512,l),
(522,512,l),
(547,582,o),
(570,654,o),
(591,725,c),
(484,752,l),
(464,672,o),
(438,590,o),
(412,512,c),
(73,512,l),
(73,418,l),
(378,418,l),
(325,276,o),
(273,160,o),
(249,117,cs),
(209,40,o),
(183,-9,o),
(155,-19,c),
(168,-46,o),
(188,-97,o),
(194,-116,c),
(235,-98,o),
(294,-91,o),
(742,-30,c),
(769,-73,o),
(792,-113,o),
(809,-146,c),
(899,-94,l),
(850,-5,o),
(752,136,o),
(668,244,c),
(584,204,l),
(617,159,o),
(653,107,o),
(688,54,c),
(302,8,l),
(366,127,o),
(430,268,o),
(487,418,c)
);
}
);
vertWidth = 1000;
width = 1000;
}
);
note = cid01654;
unicode = 12554;
}
{
color = 0;
glyphname = "n-bopomofo";
layers = (
{
background = {
shapes = (
{
closed = 1;
nodes = (
(512,399,l),
(579,468,o),
(651,555,o),
(715,645,c),
(651,691,l),
(630,682,l),
(151,682,l),
(151,590,l),
(562,590,l),
(510,517,o),
(454,454,o),
(433,434,cs),
(406,406,o),
(377,382,o),
(355,377,c),
(368,356,o),
(387,314,o),
(393,295,c),
(402,304,o),
(440,309,o),
(481,309,cs),
(778,309,l),
(744,114,o),
(706,13,o),
(663,-20,cs),
(647,-31,o),
(631,-33,o),
(606,-33,cs),
(574,-33,o),
(499,-31,o),
(426,-24,c),
(445,-51,o),
(458,-91,o),
(461,-119,c),
(529,-123,o),
(595,-125,o),
(632,-122,cs),
(680,-119,o),
(709,-112,o),
(740,-83,cs),
(797,-33,o),
(840,89,o),
(884,355,cs),
(887,369,o),
(889,399,o),
(889,399,c)
);
}
);
};
hints = (
{
horizontal = 1;
place = (-39, 86);
place = (-39, 86);
type = Stem;
},
{
horizontal = 1;
place = (389, 90);
place = (389, 90);
type = Stem;
},
{
horizontal = 1;
place = (670, 92);
place = (670, 92);
type = Stem;
},
{
place = (151, 738);
place = (151, 738);
type = Stem;
}
);
layerId = m01;
shapes = (
{
closed = 1;
nodes = (
(512,399,l),
(579,468,o),
(651,555,o),
(715,645,c),
(651,691,l),
(630,682,l),
(151,682,l),
(151,590,l),
(562,590,l),
(510,517,o),
(454,454,o),
(433,434,cs),
(406,406,o),
(377,382,o),
(355,377,c),
(368,356,o),
(387,314,o),
(393,295,c),
(402,304,o),
(440,309,o),
(481,309,cs),
(778,309,l),
(744,114,o),
(706,13,o),
(663,-20,cs),
(647,-31,o),
(631,-33,o),
(606,-33,cs),
(574,-33,o),
(499,-31,o),
(426,-24,c),
(445,-51,o),
(458,-91,o),
(461,-119,c),
(529,-123,o),
(595,-125,o),
(632,-122,cs),
(680,-119,o),
(709,-112,o),
(740,-83,cs),
(797,-33,o),
(840,89,o),
(884,355,cs),
(887,369,o),
(889,399,o),
(889,399,c)
);
}
);
vertWidth = 1000;
width = 1000;
}
);
note = cid01655;
unicode = 12555;
}
{
color = 0;
glyphname = "l-bopomofo";
layers = (
{
background = {
shapes = (
{
closed = 1;
nodes = (
(566,502,l),
(580,574,o),
(590,651,o),
(598,735,c),
(501,743,l),
(493,656,o),
(483,575,o),
(469,502,c),
(265,502,l),
(288,564,o),
(310,640,o),
(322,711,c),
(226,739,l),
(218,652,o),
(187,559,o),
(179,534,cs),
(169,509,o),
(158,492,o),
(144,488,c),
(155,463,o),
(170,420,o),
(176,399,c),
(186,408,o),
(228,412,o),
(282,412,cs),
(449,412,l),
(391,190,o),
(285,39,o),
(79,-55,c),
(99,-75,o),
(132,-116,o),
(144,-137,c),
(368,-21,o),
(484,154,o),
(547,412,c),
(768,412,l),
(746,136,o),
(719,16,o),
(685,-14,cs),
(671,-27,o),
(659,-29,o),
(638,-29,cs),
(612,-29,o),
(553,-28,o),
(491,-23,c),
(509,-49,o),
(521,-90,o),
(523,-119,c),
(582,-122,o),
(641,-123,o),
(675,-119,cs),
(715,-116,o),
(741,-107,o),
(767,-76,c),
(813,-28,o),
(841,108,o),
(868,457,c),
(871,470,o),
(872,502,o),
(872,502,c)
);
}
);
};
hints = (
{
horizontal = 1;
place = (-42, 93);
place = (-42, 93);
type = Stem;
},
{
horizontal = 1;
place = (492, 90);
place = (492, 90);
type = Stem;
},
{
place = (501, 97);
place = (501, 97);
type = Stem;
}
);
layerId = m01;
shapes = (
{
closed = 1;
nodes = (
(566,502,l),
(580,574,o),
(590,651,o),
(598,735,c),
(501,743,l),
(493,656,o),
(483,575,o),
(469,502,c),
(265,502,l),
(288,564,o),
(310,640,o),
(322,711,c),
(226,739,l),
(218,652,o),
(187,559,o),
(179,534,cs),
(169,509,o),
(158,492,o),
(144,488,c),
(155,463,o),
(170,420,o),
(176,399,c),
(186,408,o),
(228,412,o),
(282,412,cs),
(449,412,l),
(391,190,o),
(285,39,o),
(79,-55,c),
(99,-75,o),
(132,-116,o),
(144,-137,c),
(368,-21,o),
(484,154,o),
(547,412,c),
(768,412,l),
(746,136,o),
(719,16,o),
(685,-14,cs),
(671,-27,o),
(659,-29,o),
(638,-29,cs),
(612,-29,o),
(553,-28,o),
(491,-23,c),
(509,-49,o),
(521,-90,o),
(523,-119,c),
(582,-122,o),
(641,-123,o),
(675,-119,cs),
(715,-116,o),
(741,-107,o),
(767,-76,c),
(813,-28,o),
(841,108,o),
(868,457,c),
(871,470,o),
(872,502,o),
(872,502,c)
);
}
);
vertWidth = 1000;
width = 1000;
}
);
note = cid01656;
unicode = 12556;
}
{
color = 0;
glyphname = "g-bopomofo";
layers = (
{
background = {
shapes = (
{
closed = 1;
nodes = (
(379,738,l),
(327,631,o),
(217,456,o),
(122,323,c),
(245,164,o),
(363,-22,o),
(416,-141,c),
(516,-89,l),
(461,19,o),
(346,187,o),
(237,324,c),
(319,442,o),
(416,575,o),
(479,703,c)
);
},
{
closed = 1;
nodes = (
(722,720,l),
(668,618,o),
(556,450,o),
(459,322,c),
(584,170,o),
(705,-9,o),
(759,-123,c),
(860,-72,l),
(803,31,o),
(686,193,o),
(577,322,c),
(660,435,o),
(759,563,o),
(823,684,c)
);
}
);
};
hints = (
{
horizontal = 1;
place = (-61, 879);
place = (-61, 879);
type = Stem;
},
{
place = (122, 738);
place = (122, 738);
type = Stem;
}
);
layerId = m01;
shapes = (
{
closed = 1;
nodes = (
(379,738,l),
(327,631,o),
(217,456,o),
(122,323,c),
(245,164,o),
(363,-22,o),
(416,-141,c),
(516,-89,l),
(461,19,o),
(346,187,o),
(237,324,c),
(319,442,o),
(416,575,o),
(479,703,c)
);
},
{
closed = 1;
nodes = (
(722,720,l),
(668,618,o),
(556,450,o),
(459,322,c),
(584,170,o),
(705,-9,o),
(759,-123,c),
(860,-72,l),
(803,31,o),
(686,193,o),
(577,322,c),
(660,435,o),
(759,563,o),
(823,684,c)
);
}
);
vertWidth = 1000;
width = 1000;
}
);
note = cid01657;
unicode = 12557;
}
{
color = 0;
glyphname = "k-bopomofo";
layers = (
{
background = {
shapes = (
{
closed = 1;
nodes = (
(921,583,l),
(921,676,l),
(83,676,l),
(83,583,l),
(359,583,l),
(328,513,o),
(290,452,o),
(275,433,cs),
(257,407,o),
(240,389,o),
(223,385,c),
(234,358,o),
(251,310,o),
(256,289,c),
(265,298,o),
(302,302,o),
(347,302,cs),
(693,302,l),
(666,107,o),
(635,7,o),
(597,-23,cs),
(582,-34,o),
(566,-35,o),
(539,-35,cs),
(505,-35,o),
(421,-33,o),
(339,-26,c),
(358,-52,o),
(373,-92,o),
(375,-118,c),
(451,-123,o),
(525,-125,o),
(566,-122,cs),
(616,-119,o),
(646,-111,o),
(677,-82,cs),
(729,-35,o),
(763,82,o),
(797,349,c),
(800,361,o),
(801,392,o),
(801,392,c),
(357,392,l),
(400,448,o),
(442,517,o),
(476,583,c)
);
}
);
};
hints = (
{
horizontal = 1;
place = (-38, 83);
place = (-38, 83);
type = Stem;
},
{
horizontal = 1;
place = (382, 90);
place = (382, 90);
type = Stem;
},
{
horizontal = 1;
place = (663, 93);
place = (663, 93);
type = Stem;
},
{
place = (83, 838);
place = (83, 838);
type = Stem;
}
);
layerId = m01;
shapes = (
{
closed = 1;
nodes = (
(921,583,l),
(921,676,l),
(83,676,l),
(83,583,l),
(359,583,l),
(328,513,o),
(290,452,o),
(275,433,cs),
(257,407,o),
(240,389,o),
(223,385,c),
(234,358,o),
(251,310,o),
(256,289,c),
(265,298,o),
(302,302,o),
(347,302,cs),
(693,302,l),
(666,107,o),
(635,7,o),
(597,-23,cs),
(582,-34,o),
(566,-35,o),
(539,-35,cs),
(505,-35,o),
(421,-33,o),
(339,-26,c),
(358,-52,o),
(373,-92,o),
(375,-118,c),
(451,-123,o),
(525,-125,o),
(566,-122,cs),
(616,-119,o),
(646,-111,o),
(677,-82,cs),
(729,-35,o),
(763,82,o),
(797,349,c),
(800,361,o),
(801,392,o),
(801,392,c),
(357,392,l),
(400,448,o),
(442,517,o),
(476,583,c)
);
}
);
vertWidth = 1000;
width = 1000;
}
);
note = cid01658;
unicode = 12558;
}
{
color = 0;
glyphname = "h-bopomofo";
layers = (
{
background = {
shapes = (
{
closed = 1;
nodes = (
(899,645,l),
(169,645,l),
(169,371,ls),
(169,230,o),
(157,42,o),
(38,-89,c),
(61,-99,o),
(103,-127,o),
(119,-144,c),
(244,-4,o),
(264,214,o),
(264,370,cs),
(264,553,l),
(899,553,l)
);
}
);
};
hints = (
{
horizontal = 1;
place = (633, 92);
place = (633, 92);
type = Stem;
},
{
place = (169, 95);
place = (169, 95);
type = Stem;
}
);
layerId = m01;
shapes = (
{
closed = 1;
nodes = (
(899,645,l),
(169,645,l),
(169,371,ls),
(169,230,o),
(157,42,o),
(38,-89,c),
(61,-99,o),
(103,-127,o),
(119,-144,c),
(244,-4,o),
(264,214,o),
(264,370,cs),
(264,553,l),
(899,553,l)
);
}
);
vertWidth = 1000;
width = 1000;
}
);
note = cid01659;
unicode = 12559;
}
{
color = 0;
glyphname = "j-bopomofo";
layers = (
{
background = {
shapes = (
{
closed = 1;
nodes = (
(660,735,l),
(660,249,l),
(337,173,l),
(337,686,l),
(244,686,l),
(244,202,ls),
(244,161,o),
(212,136,o),
(191,126,c),
(207,103,o),
(228,60,o),
(235,35,c),
(235,33,l),
(269,55,o),
(317,72,o),
(660,160,c),
(660,-138,l),
(756,-138,l),
(756,735,l)
);
}
);
};
hints = (
{
horizontal = 1;
place = (-58, 873);
place = (-58, 873);
type = Stem;
},
{
place = (244, 93);
place = (244, 93);
type = Stem;
},
{
place = (660, 96);
place = (660, 96);
type = Stem;
}
);
layerId = m01;
shapes = (
{
closed = 1;
nodes = (
(660,735,l),
(660,249,l),
(337,173,l),
(337,686,l),
(244,686,l),
(244,202,ls),
(244,161,o),
(212,136,o),
(191,126,c),
(207,103,o),
(228,60,o),
(235,35,c),
(235,33,l),
(269,55,o),
(317,72,o),
(660,160,c),
(660,-138,l),
(756,-138,l),
(756,735,l)
);
}
);
vertWidth = 1000;
width = 1000;
}
);
note = cid01660;
unicode = 12560;
}
{
color = 0;
glyphname = "q-bopomofo";
layers = (
{
background = {
shapes = (
{
closed = 1;
nodes = (
(616,741,l),
(535,635,o),
(371,457,o),
(230,324,c),
(401,166,o),
(574,-23,o),
(654,-143,c),
(752,-85,l),
(671,24,o),
(505,194,o),
(357,324,c),
(477,441,o),
(626,580,o),
(715,697,c)
);
}
);
};
hints = (
{
horizontal = 1;
place = (-63, 884);
place = (-63, 884);
type = Stem;
},
{
place = (230, 522);
place = (230, 522);
type = Stem;
}
);
layerId = m01;
shapes = (
{
closed = 1;
nodes = (
(616,741,l),
(535,635,o),
(371,457,o),
(230,324,c),
(401,166,o),
(574,-23,o),
(654,-143,c),
(752,-85,l),
(671,24,o),
(505,194,o),
(357,324,c),
(477,441,o),
(626,580,o),
(715,697,c)
);
}
);
vertWidth = 1000;
width = 1000;
}
);
note = cid01661;
unicode = 12561;
}
{
color = 0;
glyphname = "x-bopomofo";
layers = (
{
background = {
shapes = (
{
closed = 1;
nodes = (
(914,660,l),
(89,660,l),
(89,566,l),
(449,566,l),
(449,-130,l),
(552,-130,l),
(552,566,l),
(914,566,l)
);
}
);
};
hints = (
{
horizontal = 1;
place = (646, 94);
place = (646, 94);
type = Stem;
},
{
place = (449, 103);
place = (449, 103);
type = Stem;
}
);
layerId = m01;
shapes = (
{
closed = 1;
nodes = (
(914,660,l),
(89,660,l),
(89,566,l),
(449,566,l),
(449,-130,l),
(552,-130,l),
(552,566,l),
(914,566,l)
);
}
);
vertWidth = 1000;
width = 1000;
}
);
note = cid01662;
unicode = 12562;
}
{
color = 0;
glyphname = "zh-bopomofo";
layers = (
{
background = {
shapes = (
{
closed = 1;
nodes = (
(546,-3,l),
(546,159,l),
(854,159,l),
(854,623,l),
(754,623,l),
(754,251,l),
(546,251,l),
(546,729,l),
(451,729,l),
(451,251,l),
(254,251,l),
(254,623,l),
(159,623,l),
(159,159,l),
(451,159,l),
(451,-3,l),
(65,-3,l),
(65,-96,l),
(935,-96,l),
(935,-3,l)
);
}
);
};
hints = (
{
horizontal = 1;
place = (-16, 93);
place = (-16, 93);
type = Stem;
},
{
horizontal = 1;
place = (239, 92);
place = (239, 92);
type = Stem;
},
{
place = (159, 95);
place = (159, 95);
type = Stem;
},
{
place = (451, 95);
place = (451, 95);
type = Stem;
},
{
place = (754, 100);
place = (754, 100);
type = Stem;
}
);
layerId = m01;
shapes = (
{
closed = 1;
nodes = (
(546,-3,l),
(546,159,l),
(854,159,l),
(854,623,l),
(754,623,l),
(754,251,l),
(546,251,l),
(546,729,l),
(451,729,l),
(451,251,l),
(254,251,l),
(254,623,l),
(159,623,l),
(159,159,l),
(451,159,l),
(451,-3,l),
(65,-3,l),
(65,-96,l),
(935,-96,l),
(935,-3,l)
);
}
);
vertWidth = 1000;
width = 1000;
}
);
note = cid01663;
unicode = 12563;
}
{
color = 0;
glyphname = "ch-bopomofo";
layers = (
{
background = {
shapes = (
{
closed = 1;
nodes = (
(608,765,l),
(518,651,o),
(332,531,o),
(157,465,c),
(174,446,o),
(202,409,o),
(215,387,c),
(398,463,o),
(584,588,o),
(701,721,c)
);
},
{
closed = 1;
nodes = (
(765,624,l),
(619,432,o),
(372,271,o),
(124,179,c),
(143,158,o),
(172,114,o),
(184,92,c),
(290,137,o),
(397,193,o),
(498,260,c),
(498,-137,l),
(595,-137,l),
(595,328,l),
(693,402,o),
(781,486,o),
(852,577,c)
);
}
);
};
hints = (
{
horizontal = 1;
place = (-57, 902);
place = (-57, 902);
type = Stem;
},
{
place = (498, 97);
place = (498, 97);
type = Stem;
}
);
layerId = m01;
shapes = (
{
closed = 1;
nodes = (
(608,765,l),
(518,651,o),
(332,531,o),
(157,465,c),
(174,446,o),
(202,409,o),
(215,387,c),
(398,463,o),
(584,588,o),
(701,721,c)
);
},
{
closed = 1;
nodes = (
(765,624,l),
(619,432,o),
(372,271,o),
(124,179,c),
(143,158,o),
(172,114,o),
(184,92,c),
(290,137,o),
(397,193,o),
(498,260,c),
(498,-137,l),
(595,-137,l),
(595,328,l),
(693,402,o),
(781,486,o),
(852,577,c)
);
}
);
vertWidth = 1000;
width = 1000;
}
);
note = cid01664;
unicode = 12564;
}
{
color = 0;
glyphname = "sh-bopomofo";
layers = (
{
background = {
shapes = (
{
closed = 1;
nodes = (
(874,682,l),
(154,682,l),
(154,590,l),
(778,590,l),
(778,391,l),
(189,391,l),
(189,291,ls),
(189,185,o),
(172,17,o),
(28,-98,c),
(53,-111,o),
(90,-140,o),
(108,-158,c),
(265,-31,o),
(288,163,o),
(288,289,cs),
(288,299,l),
(874,299,l)
);
}
);
};
hints = (
{
horizontal = 1;
place = (379, 92);
place = (379, 92);
type = Stem;
},
{
horizontal = 1;
place = (670, 92);
place = (670, 92);
type = Stem;
},
{
place = (189, 99);
place = (189, 99);
type = Stem;
},
{
place = (778, 96);
place = (778, 96);
type = Stem;
}
);
layerId = m01;
shapes = (
{
closed = 1;
nodes = (
(874,682,l),
(154,682,l),
(154,590,l),
(778,590,l),
(778,391,l),
(189,391,l),
(189,291,ls),
(189,185,o),
(172,17,o),
(28,-98,c),
(53,-111,o),
(90,-140,o),
(108,-158,c),
(265,-31,o),
(288,163,o),
(288,289,cs),
(288,299,l),
(874,299,l)
);
}
);
vertWidth = 1000;
width = 1000;
}
);
note = cid01665;
unicode = 12565;
}
{
color = 0;
glyphname = "r-bopomofo";
layers = (
{
background = {
shapes = (
{
closed = 1;
nodes = (
(354,434,l),
(424,341,o),
(511,214,o),
(552,136,c),
(637,185,l),
(594,262,o),
(508,382,o),
(435,475,c)
);
},
{
closed = 1;
nodes = (
(254,12,l),
(254,593,l),
(743,593,l),
(743,23,l)
);
},
{
closed = 1;
nodes = (
(175,689,l),
(175,685,l),
(155,685,l),
(155,86,ls),
(155,42,o),
(129,8,o),
(109,-5,c),
(126,-25,o),
(156,-70,o),
(168,-95,c),
(208,-82,o),
(267,-85,o),
(743,-69,c),
(743,-129,l),
(847,-129,l),
(847,689,l)
);
}
);
};
hints = (
{
horizontal = 1;
place = (11, 86.5);
place = (11, 86.5);
type = Stem;
},
{
horizontal = 1;
place = (673, 96);
place = (673, 96);
type = Stem;
},
{
place = (155, 99);
place = (155, 99);
type = Stem;
},
{
place = (743, 104);
place = (743, 104);
type = Stem;
},
{
place = (175, 79);
place = (175, 79);
type = Stem;
}
);
layerId = m01;
shapes = (
{
closed = 1;
nodes = (
(354,434,l),
(424,341,o),
(511,214,o),
(552,136,c),
(637,185,l),
(594,262,o),
(508,382,o),
(435,475,c)
);
},
{
closed = 1;
nodes = (
(254,12,l),
(254,593,l),
(743,593,l),
(743,23,l)
);
},
{
closed = 1;
nodes = (
(175,689,l),
(175,685,l),
(155,685,l),
(155,86,ls),
(155,42,o),
(129,8,o),
(109,-5,c),
(126,-25,o),
(156,-70,o),
(168,-95,c),
(208,-82,o),
(267,-85,o),
(743,-69,c),
(743,-129,l),
(847,-129,l),
(847,689,l)
);
}
);
vertWidth = 1000;
width = 1000;
}
);
note = cid01666;
unicode = 12566;
}
{
color = 0;
glyphname = "z-bopomofo";
layers = (
{
background = {
shapes = (
{
closed = 1;
nodes = (
(116,660,l),
(116,569,l),
(390,569,l),
(390,-137,l),
(490,-137,l),
(490,569,l),
(787,569,l),
(775,337,o),
(761,243,o),
(738,220,cs),
(727,208,o),
(717,206,o),
(698,206,cs),
(677,206,o),
(626,207,o),
(572,211,c),
(589,185,o),
(601,144,o),
(602,116,c),
(657,114,o),
(710,113,o),
(741,117,cs),
(776,121,o),
(799,130,o),
(821,157,cs),
(855,197,o),
(871,312,o),
(886,617,cs),
(887,629,o),
(888,660,o),
(888,660,c)
);
}
);
};
hints = (
{
horizontal = 1;
place = (196, 90);
place = (196, 90);
type = Stem;
},
{
horizontal = 1;
place = (649, 91);
place = (649, 91);
type = Stem;
},
{
place = (390, 100);
place = (390, 100);
type = Stem;
},
{
place = (787, 101);
place = (787, 101);
type = Stem;
}
);
layerId = m01;
shapes = (
{
closed = 1;
nodes = (
(116,660,l),
(116,569,l),
(390,569,l),
(390,-137,l),
(490,-137,l),
(490,569,l),
(787,569,l),
(775,337,o),
(761,243,o),
(738,220,cs),
(727,208,o),
(717,206,o),
(698,206,cs),
(677,206,o),
(626,207,o),
(572,211,c),
(589,185,o),
(601,144,o),
(602,116,c),
(657,114,o),
(710,113,o),
(741,117,cs),
(776,121,o),
(799,130,o),
(821,157,cs),
(855,197,o),
(871,312,o),
(886,617,cs),
(887,629,o),
(888,660,o),
(888,660,c)
);
}
);
vertWidth = 1000;
width = 1000;
}
);
note = cid01667;
unicode = 12567;
}
{
color = 0;
glyphname = "c-bopomofo";
layers = (
{
background = {
shapes = (
{
closed = 1;
nodes = (
(933,477,l),
(933,571,l),
(485,571,l),
(504,625,o),
(523,680,o),
(539,735,c),
(439,759,l),
(423,696,o),
(403,630,o),
(382,571,c),
(65,571,l),
(65,477,l),
(346,477,l),
(326,426,o),
(309,388,o),
(299,369,cs),
(275,321,o),
(257,290,o),
(235,283,c),
(246,258,o),
(262,213,o),
(267,193,c),
(276,202,o),
(314,207,o),
(355,207,cs),
(677,207,l),
(638,96,o),
(573,-29,o),
(518,-102,c),
(541,-115,o),
(578,-142,o),
(597,-159,c),
(674,-54,o),
(761,109,o),
(806,266,c),
(734,305,l),
(716,300,l),
(368,300,l),
(395,354,o),
(422,414,o),
(448,477,c)
);
}
);
};
hints = (
{
horizontal = 1;
place = (287, 93);
place = (287, 93);
type = Stem;
},
{
horizontal = 1;
place = (557, 94);
place = (557, 94);
type = Stem;
},
{
place = (65, 868);
place = (65, 868);
type = Stem;
}
);
layerId = m01;
shapes = (
{
closed = 1;
nodes = (
(933,477,l),
(933,571,l),
(485,571,l),
(504,625,o),
(523,680,o),
(539,735,c),
(439,759,l),
(423,696,o),
(403,630,o),
(382,571,c),
(65,571,l),
(65,477,l),
(346,477,l),
(326,426,o),
(309,388,o),
(299,369,cs),
(275,321,o),
(257,290,o),
(235,283,c),
(246,258,o),
(262,213,o),
(267,193,c),
(276,202,o),
(314,207,o),
(355,207,cs),
(677,207,l),
(638,96,o),
(573,-29,o),
(518,-102,c),
(541,-115,o),
(578,-142,o),
(597,-159,c),
(674,-54,o),
(761,109,o),
(806,266,c),
(734,305,l),
(716,300,l),
(368,300,l),
(395,354,o),
(422,414,o),
(448,477,c)
);
}
);
vertWidth = 1000;
width = 1000;
}
);
note = cid01668;
unicode = 12568;
}
{
color = 0;
glyphname = "s-bopomofo";
layers = (
{
background = {
shapes = (
{
closed = 1;
nodes = (
(921,-74,l),
(877,34,o),
(790,200,o),
(713,329,c),
(619,295,l),
(651,239,o),
(686,174,o),
(718,110,c),
(259,47,l),
(362,226,o),
(467,460,o),
(544,693,c),
(436,722,l),
(365,474,o),
(239,206,o),
(198,139,cs),
(159,69,o),
(133,25,o),
(103,15,c),
(117,-13,o),
(137,-63,o),
(143,-84,c),
(188,-63,o),
(251,-55,o),
(761,23,c),
(785,-28,o),
(806,-77,o),
(821,-117,c)
);
}
);
};
hints = (
{
horizontal = 1;
place = (-37, 839);
place = (-37, 839);
type = Stem;
},
{
place = (103, 818);
place = (103, 818);
type = Stem;
}
);
layerId = m01;
shapes = (
{
closed = 1;
nodes = (
(921,-74,l),
(877,34,o),
(790,200,o),
(713,329,c),
(619,295,l),
(651,239,o),
(686,174,o),
(718,110,c),
(259,47,l),
(362,226,o),
(467,460,o),
(544,693,c),
(436,722,l),
(365,474,o),
(239,206,o),
(198,139,cs),
(159,69,o),
(133,25,o),
(103,15,c),
(117,-13,o),
(137,-63,o),
(143,-84,c),
(188,-63,o),
(251,-55,o),
(761,23,c),
(785,-28,o),
(806,-77,o),
(821,-117,c)
);
}
);
vertWidth = 1000;
width = 1000;
}
);
note = cid01669;
unicode = 12569;
}
{
color = 0;
glyphname = "a-bopomofo";
layers = (
{
background = {
shapes = (
{
closed = 1;
nodes = (
(800,717,l),
(724,621,o),
(609,509,o),
(508,425,c),
(422,511,o),
(296,624,o),
(190,714,c),
(118,651,l),
(229,553,o),
(368,421,o),
(452,329,c),
(452,-110,l),
(552,-110,l),
(552,338,l),
(658,425,o),
(788,546,o),
(886,656,c)
);
}
);
};
hints = (
{
horizontal = 1;
place = (-30, 827);
place = (-30, 827);
type = Stem;
},
{
place = (452, 100);
place = (452, 100);
type = Stem;
}
);
layerId = m01;
shapes = (
{
closed = 1;
nodes = (
(800,717,l),
(724,621,o),
(609,509,o),
(508,425,c),
(422,511,o),
(296,624,o),
(190,714,c),
(118,651,l),
(229,553,o),
(368,421,o),
(452,329,c),
(452,-110,l),
(552,-110,l),
(552,338,l),
(658,425,o),
(788,546,o),
(886,656,c)
);
}
);
vertWidth = 1000;
width = 1000;
}
);
note = cid01670;
unicode = 12570;
}
{
color = 0;
glyphname = "o-bopomofo";
layers = (
{
background = {
shapes = (
{
closed = 1;
nodes = (
(571,537,l),
(896,537,l),
(896,629,l),
(100,629,l),
(100,537,l),
(471,537,l),
(471,372,l),
(276,373,o),
(134,292,o),
(134,142,cs),
(134,-2,o),
(269,-87,o),
(471,-88,cs),
(637,-88,o),
(783,-39,o),
(877,83,c),
(806,145,l),
(730,56,o),
(615,8,o),
(460,8,cs),
(310,8,o),
(228,61,o),
(228,149,cs),
(228,251,o),
(360,309,o),
(571,286,c)
);
}
);
};
hints = (
{
horizontal = 1;
place = (-8, 96);
place = (-8, 96);
type = Stem;
},
{
horizontal = 1;
place = (371, 81);
place = (371, 81);
type = Stem;
},
{
horizontal = 1;
place = (617, 92);
place = (617, 92);
type = Stem;
},
{
place = (134, 94);
place = (134, 94);
type = Stem;
},
{
place = (471, 100);
place = (471, 100);
type = Stem;
}
);
layerId = m01;
shapes = (
{
closed = 1;
nodes = (
(571,537,l),
(896,537,l),
(896,629,l),
(100,629,l),
(100,537,l),
(471,537,l),
(471,372,l),
(276,373,o),
(134,292,o),
(134,142,cs),
(134,-2,o),
(269,-87,o),
(471,-88,cs),
(637,-88,o),
(783,-39,o),
(877,83,c),
(806,145,l),
(730,56,o),
(615,8,o),
(460,8,cs),
(310,8,o),
(228,61,o),
(228,149,cs),
(228,251,o),
(360,309,o),
(571,286,c)
);
}
);
vertWidth = 1000;
width = 1000;
}
);
note = cid01671;
unicode = 12571;
}
{
color = 0;
glyphname = "e-bopomofo";
layers = (
{
background = {
shapes = (
{
closed = 1;
nodes = (
(571,488,l),
(902,488,l),
(902,579,l),
(571,579,l),
(571,717,l),
(471,717,l),
(471,579,l),
(97,579,l),
(97,488,l),
(471,488,l),
(471,351,l),
(276,363,o),
(134,287,o),
(134,142,cs),
(134,1,o),
(269,-87,o),
(471,-88,cs),
(637,-88,o),
(783,-40,o),
(877,78,c),
(806,144,l),
(730,56,o),
(615,6,o),
(460,6,cs),
(310,6,o),
(228,62,o),
(228,148,cs),
(228,248,o),
(353,298,o),
(571,262,c)
);
}
);
};
hints = (
{
horizontal = 1;
place = (-8, 94);
place = (-8, 94);
type = Stem;
},
{
horizontal = 1;
place = (353, 78);
place = (353, 78);
type = Stem;
},
{
horizontal = 1;
place = (568, 91);
place = (568, 91);
type = Stem;
},
{
place = (134, 94);
place = (134, 94);
type = Stem;
},
{
place = (471, 100);
place = (471, 100);
type = Stem;
}
);
layerId = m01;
shapes = (
{
closed = 1;
nodes = (
(571,488,l),
(902,488,l),
(902,579,l),
(571,579,l),
(571,717,l),
(471,717,l),
(471,579,l),
(97,579,l),
(97,488,l),
(471,488,l),
(471,351,l),
(276,363,o),
(134,287,o),
(134,142,cs),
(134,1,o),
(269,-87,o),
(471,-88,cs),
(637,-88,o),
(783,-40,o),
(877,78,c),
(806,144,l),
(730,56,o),
(615,6,o),
(460,6,cs),
(310,6,o),
(228,62,o),
(228,148,cs),
(228,248,o),
(353,298,o),
(571,262,c)
);
}
);
vertWidth = 1000;
width = 1000;
}
);
note = cid01672;
unicode = 12572;
}
{
color = 0;
glyphname = "eh-bopomofo";
layers = (
{
background = {
shapes = (
{
closed = 1;
nodes = (
(931,373,l),
(931,468,l),
(725,468,l),
(729,529,o),
(730,587,o),
(730,640,cs),
(730,712,l),
(636,712,l),
(636,641,ls),
(636,588,o),
(635,529,o),
(630,468,c),
(353,468,l),
(353,700,l),
(257,700,l),
(257,468,l),
(68,468,l),
(68,373,l),
(257,373,l),
(257,85,ls),
(257,-54,o),
(308,-100,o),
(441,-100,cs),
(697,-100,ls),
(751,-100,o),
(808,-98,o),
(832,-91,c),
(827,-69,o),
(822,-25,o),
(819,-1,c),
(791,-6,o),
(740,-9,o),
(700,-9,cs),
(436,-9,ls),
(373,-9,o),
(353,14,o),
(353,80,cs),
(353,373,l),
(620,373,l),
(607,289,o),
(585,203,o),
(548,122,c),
(577,111,o),
(617,89,o),
(638,72,c),
(681,169,o),
(704,273,o),
(716,373,c)
);
}
);
};
hints = (
{
horizontal = 1;
place = (-20, 91);
place = (-20, 91);
type = Stem;
},
{
horizontal = 1;
place = (453, 95);
place = (453, 95);
type = Stem;
},
{
place = (257, 96);
place = (257, 96);
type = Stem;
},
{
place = (636, 94);
place = (636, 94);
type = Stem;
}
);
layerId = m01;
shapes = (
{
closed = 1;
nodes = (
(931,373,l),
(931,468,l),
(725,468,l),
(729,529,o),
(730,587,o),
(730,640,cs),
(730,712,l),
(636,712,l),
(636,641,ls),
(636,588,o),
(635,529,o),
(630,468,c),
(353,468,l),
(353,700,l),
(257,700,l),
(257,468,l),
(68,468,l),
(68,373,l),
(257,373,l),
(257,85,ls),
(257,-54,o),
(308,-100,o),
(441,-100,cs),
(697,-100,ls),
(751,-100,o),
(808,-98,o),
(832,-91,c),
(827,-69,o),
(822,-25,o),
(819,-1,c),
(791,-6,o),
(740,-9,o),
(700,-9,cs),
(436,-9,ls),
(373,-9,o),
(353,14,o),
(353,80,cs),
(353,373,l),
(620,373,l),
(607,289,o),
(585,203,o),
(548,122,c),
(577,111,o),
(617,89,o),
(638,72,c),
(681,169,o),
(704,273,o),
(716,373,c)
);
}
);
vertWidth = 1000;
width = 1000;
}
);
note = cid01673;
unicode = 12573;
}
{
color = 0;
glyphname = "ai-bopomofo";
layers = (
{
background = {
shapes = (
{
closed = 1;
nodes = (
(905,594,l),
(905,687,l),
(98,687,l),
(98,594,l),
(493,594,l),
(483,501,o),
(468,419,o),
(446,346,c),
(241,346,l),
(266,404,o),
(291,475,o),
(306,542,c),
(212,566,l),
(199,482,o),
(164,395,o),
(154,373,cs),
(143,349,o),
(131,332,o),
(118,328,c),
(128,305,o),
(143,263,o),
(149,243,c),
(158,252,o),
(200,257,o),
(255,257,cs),
(413,257,l),
(351,113,o),
(251,13,o),
(88,-53,c),
(109,-72,o),
(143,-111,o),
(154,-131,c),
(336,-46,o),
(446,78,o),
(513,257,c),
(756,257,l),
(737,132,o),
(704,-9,o),
(659,-101,c),
(750,-134,l),
(809,-11,o),
(849,164,o),
(874,314,cs),
(878,331,l),
(794,361,l),
(773,346,l),
(542,346,l),
(562,420,o),
(577,503,o),
(588,594,c)
);
}
);
};
hints = (
{
horizontal = 1;
place = (337, 89);
place = (337, 89);
type = Stem;
},
{
horizontal = 1;
place = (674, 93);
place = (674, 93);
type = Stem;
},
{
place = (88, 817);
place = (88, 817);
type = Stem;
},
{
place = (493, 95);
place = (493, 95);
type = Stem;
}
);
layerId = m01;
shapes = (
{
closed = 1;
nodes = (
(905,594,l),
(905,687,l),
(98,687,l),
(98,594,l),
(493,594,l),
(483,501,o),
(468,419,o),
(446,346,c),
(241,346,l),
(266,404,o),
(291,475,o),
(306,542,c),
(212,566,l),
(199,482,o),
(164,395,o),
(154,373,cs),
(143,349,o),
(131,332,o),
(118,328,c),
(128,305,o),
(143,263,o),
(149,243,c),
(158,252,o),
(200,257,o),
(255,257,cs),
(413,257,l),
(351,113,o),
(251,13,o),
(88,-53,c),
(109,-72,o),
(143,-111,o),
(154,-131,c),
(336,-46,o),
(446,78,o),
(513,257,c),
(756,257,l),
(737,132,o),
(704,-9,o),
(659,-101,c),
(750,-134,l),
(809,-11,o),
(849,164,o),
(874,314,cs),
(878,331,l),
(794,361,l),
(773,346,l),
(542,346,l),
(562,420,o),
(577,503,o),
(588,594,c)
);
}
);
vertWidth = 1000;
width = 1000;
}
);
note = cid01674;
unicode = 12574;
}
{
color = 0;
glyphname = "ei-bopomofo";
layers = (
{
background = {
shapes = (
{
closed = 1;
nodes = (
(367,666,l),
(295,616,o),
(182,555,o),
(89,521,c),
(108,492,o),
(128,459,o),
(141,426,c),
(225,468,o),
(298,512,o),
(365,555,c),
(469,235,o),
(623,43,o),
(818,-88,c),
(842,-68,o),
(879,-31,o),
(907,-13,c),
(679,128,o),
(535,316,o),
(442,644,c)
);
}
);
};
hints = (
{
horizontal = 1;
place = (-8, 754);
place = (-8, 754);
type = Stem;
},
{
place = (89, 818);
place = (89, 818);
type = Stem;
}
);
layerId = m01;
shapes = (
{
closed = 1;
nodes = (
(367,666,l),
(295,616,o),
(182,555,o),
(89,521,c),
(108,492,o),
(128,459,o),
(141,426,c),
(225,468,o),
(298,512,o),
(365,555,c),
(469,235,o),
(623,43,o),
(818,-88,c),
(842,-68,o),
(879,-31,o),
(907,-13,c),
(679,128,o),
(535,316,o),
(442,644,c)
);
}
);
vertWidth = 1000;
width = 1000;
}
);
note = cid01675;
unicode = 12575;
}
{
color = 0;
glyphname = "au-bopomofo";
layers = (
{
background = {
shapes = (
{
closed = 1;
nodes = (
(927,-102,l),
(891,-12,o),
(818,126,o),
(754,234,c),
(667,195,l),
(690,155,o),
(715,109,o),
(739,62,c),
(337,12,l),
(493,143,o),
(654,306,o),
(795,493,c),
(715,554,l),
(671,491,o),
(621,430,o),
(572,372,c),
(303,350,l),
(398,445,o),
(493,562,o),
(572,682,c),
(487,736,l),
(403,588,o),
(274,437,o),
(232,398,cs),
(194,359,o),
(168,334,o),
(140,328,c),
(152,302,o),
(168,255,o),
(173,236,c),
(200,246,o),
(240,255,o),
(489,280,c),
(397,181,o),
(315,105,o),
(276,74,cs),
(211,19,o),
(172,-12,o),
(138,-20,c),
(152,-46,o),
(170,-92,o),
(176,-111,c),
(219,-92,o),
(278,-84,o),
(778,-16,c),
(801,-65,o),
(822,-111,o),
(835,-148,c)
);
}
);
};
hints = (
{
horizontal = 1;
place = (-68, 884);
place = (-68, 884);
type = Stem;
},
{
place = (138, 789);
place = (138, 789);
type = Stem;
}
);
layerId = m01;
shapes = (
{
closed = 1;
nodes = (
(927,-102,l),
(891,-12,o),
(818,126,o),
(754,234,c),
(667,195,l),
(690,155,o),
(715,109,o),
(739,62,c),
(337,12,l),
(493,143,o),
(654,306,o),
(795,493,c),
(715,554,l),
(671,491,o),
(621,430,o),
(572,372,c),
(303,350,l),
(398,445,o),
(493,562,o),
(572,682,c),
(487,736,l),
(403,588,o),
(274,437,o),
(232,398,cs),
(194,359,o),
(168,334,o),
(140,328,c),
(152,302,o),
(168,255,o),
(173,236,c),
(200,246,o),
(240,255,o),
(489,280,c),
(397,181,o),
(315,105,o),
(276,74,cs),
(211,19,o),
(172,-12,o),
(138,-20,c),
(152,-46,o),
(170,-92,o),
(176,-111,c),
(219,-92,o),
(278,-84,o),
(778,-16,c),
(801,-65,o),
(822,-111,o),
(835,-148,c)
);
}
);
vertWidth = 1000;
width = 1000;
}
);
note = cid01676;
unicode = 12576;
}
{
color = 0;
glyphname = "ou-bopomofo";
layers = (
{
background = {
shapes = (
{
closed = 1;
nodes = (
(800,653,l),
(783,647,l),
(155,647,l),
(155,553,l),
(737,553,l),
(693,446,o),
(630,349,o),
(555,264,c),
(475,333,o),
(392,400,o),
(316,457,c),
(244,397,l),
(323,337,o),
(407,266,o),
(487,194,c),
(368,81,o),
(227,-5,o),
(84,-55,c),
(105,-75,o),
(131,-115,o),
(144,-142,c),
(294,-84,o),
(438,6,o),
(560,125,c),
(658,31,o),
(744,-62,o),
(797,-137,c),
(880,-65,l),
(822,12,o),
(731,105,o),
(630,198,c),
(732,315,o),
(815,456,o),
(868,619,c)
);
}
);
};
hints = (
{
horizontal = 1;
place = (633, 94);
place = (633, 94);
type = Stem;
},
{
place = (84, 796);
place = (84, 796);
type = Stem;
}
);
layerId = m01;
shapes = (
{
closed = 1;
nodes = (
(800,653,l),
(783,647,l),
(155,647,l),
(155,553,l),
(737,553,l),
(693,446,o),
(630,349,o),
(555,264,c),
(475,333,o),
(392,400,o),
(316,457,c),
(244,397,l),
(323,337,o),
(407,266,o),
(487,194,c),
(368,81,o),
(227,-5,o),
(84,-55,c),
(105,-75,o),
(131,-115,o),
(144,-142,c),
(294,-84,o),
(438,6,o),
(560,125,c),
(658,31,o),
(744,-62,o),
(797,-137,c),
(880,-65,l),
(822,12,o),
(731,105,o),
(630,198,c),
(732,315,o),
(815,456,o),
(868,619,c)
);
}
);
vertWidth = 1000;
width = 1000;
}
);
note = cid01677;
unicode = 12577;
}
{
color = 0;
glyphname = "an-bopomofo";
layers = (
{
background = {
shapes = (
{
closed = 1;
nodes = (
(819,319,l),
(800,314,l),
(718,314,l),
(754,428,o),
(793,561,o),
(817,664,c),
(745,678,l),
(729,673,l),
(136,673,l),
(136,583,l),
(697,583,l),
(675,502,o),
(646,399,o),
(618,314,c),
(291,314,l),
(324,380,o),
(358,463,o),
(378,539,c),
(278,567,l),
(261,474,o),
(220,376,o),
(207,351,cs),
(194,324,o),
(180,305,o),
(166,301,c),
(177,276,o),
(193,231,o),
(199,210,c),
(208,219,o),
(249,224,o),
(303,224,cs),
(769,224,l),
(738,109,o),
(686,-23,o),
(642,-94,c),
(665,-107,o),
(700,-129,o),
(718,-144,c),
(781,-44,o),
(852,125,o),
(887,283,c)
);
}
);
};
hints = (
{
horizontal = 1;
place = (304, 90);
place = (304, 90);
type = Stem;
},
{
horizontal = 1;
place = (663, 90);
place = (663, 90);
type = Stem;
},
{
place = (136, 751);
place = (136, 751);
type = Stem;
},
{
horizontal = 1;
place = (304, 77);
place = (304, 77);
type = Stem;
}
);
layerId = m01;
shapes = (
{
closed = 1;
nodes = (
(819,319,l),
(800,314,l),
(718,314,l),
(754,428,o),
(793,561,o),
(817,664,c),
(745,678,l),
(729,673,l),
(136,673,l),
(136,583,l),
(697,583,l),
(675,502,o),
(646,399,o),
(618,314,c),
(291,314,l),
(324,380,o),
(358,463,o),
(378,539,c),
(278,567,l),
(261,474,o),
(220,376,o),
(207,351,cs),
(194,324,o),
(180,305,o),
(166,301,c),
(177,276,o),
(193,231,o),
(199,210,c),
(208,219,o),
(249,224,o),
(303,224,cs),
(769,224,l),
(738,109,o),
(686,-23,o),
(642,-94,c),
(665,-107,o),
(700,-129,o),
(718,-144,c),
(781,-44,o),
(852,125,o),
(887,283,c)
);
}
);
vertWidth = 1000;
width = 1000;
}
);
note = cid01678;
unicode = 12578;
}
{
color = 0;
glyphname = "en-bopomofo";
layers = (
{
background = {
shapes = (
{
closed = 1;
nodes = (
(823,383,l),
(805,378,l),
(269,378,l),
(317,470,o),
(367,589,o),
(401,705,c),
(297,724,l),
(269,600,o),
(213,466,o),
(194,432,cs),
(175,395,o),
(161,372,o),
(142,367,c),
(153,341,o),
(168,295,o),
(174,275,c),
(183,284,o),
(225,289,o),
(281,289,cs),
(776,289,l),
(745,156,o),
(689,-2,o),
(640,-87,c),
(664,-98,o),
(698,-124,o),
(715,-140,c),
(783,-24,o),
(853,171,o),
(889,350,c)
);
}
);
};
hints = (
{
horizontal = 1;
place = (369, 89);
place = (369, 89);
type = Stem;
},
{
place = (142, 747);
place = (142, 747);
type = Stem;
},
{
horizontal = 1;
place = (369, 78);
place = (369, 78);
type = Stem;
}
);
layerId = m01;
shapes = (
{
closed = 1;
nodes = (
(823,383,l),
(805,378,l),
(269,378,l),
(317,470,o),
(367,589,o),
(401,705,c),
(297,724,l),
(269,600,o),
(213,466,o),
(194,432,cs),
(175,395,o),
(161,372,o),
(142,367,c),
(153,341,o),
(168,295,o),
(174,275,c),
(183,284,o),
(225,289,o),
(281,289,cs),
(776,289,l),
(745,156,o),
(689,-2,o),
(640,-87,c),
(664,-98,o),
(698,-124,o),
(715,-140,c),
(783,-24,o),
(853,171,o),
(889,350,c)
);
}
);
vertWidth = 1000;
width = 1000;
}
);
note = cid01679;
unicode = 12579;
}
{
color = 0;
glyphname = "ang-bopomofo";
layers = (
{
background = {
shapes = (
{
closed = 1;
nodes = (
(628,-17,ls),
(591,-17,o),
(583,-3,o),
(583,34,cs),
(583,346,l),
(502,346,l),
(509,380,o),
(514,413,o),
(517,445,c),
(915,445,l),
(915,537,l),
(522,537,l),
(522,554,l),
(522,734,l),
(427,734,l),
(427,556,l),
(427,537,l),
(79,537,l),
(79,445,l),
(422,445,l),
(405,269,o),
(332,77,o),
(52,-60,c),
(70,-76,o),
(100,-118,o),
(110,-139,c),
(332,-29,o),
(437,126,o),
(485,281,c),
(485,37,ls),
(485,-72,o),
(519,-108,o),
(633,-108,cs),
(831,-108,ls),
(872,-108,o),
(916,-107,o),
(936,-101,c),
(933,-77,o),
(929,-35,o),
(926,-9,c),
(904,-15,o),
(860,-17,o),
(830,-17,cs)
);
}
);
};
hints = (
{
horizontal = 1;
place = (-28, 91);
place = (-28, 91);
type = Stem;
},
{
horizontal = 1;
place = (525, 92);
place = (525, 92);
type = Stem;
},
{
place = (485, 98);
place = (485, 98);
type = Stem;
},
{
place = (485, 17);
place = (485, 17);
type = Stem;
},
{
place = (427, 95);
place = (427, 95);
type = Stem;
}
);
layerId = m01;
shapes = (
{
closed = 1;
nodes = (
(628,-17,ls),
(591,-17,o),
(583,-3,o),
(583,34,cs),
(583,346,l),
(502,346,l),
(509,380,o),
(514,413,o),
(517,445,c),
(915,445,l),
(915,537,l),
(522,537,l),
(522,554,l),
(522,734,l),
(427,734,l),
(427,556,l),
(427,537,l),
(79,537,l),
(79,445,l),
(422,445,l),
(405,269,o),
(332,77,o),
(52,-60,c),
(70,-76,o),
(100,-118,o),
(110,-139,c),
(332,-29,o),
(437,126,o),
(485,281,c),
(485,37,ls),
(485,-72,o),
(519,-108,o),
(633,-108,cs),
(831,-108,ls),
(872,-108,o),
(916,-107,o),
(936,-101,c),
(933,-77,o),
(929,-35,o),
(926,-9,c),
(904,-15,o),
(860,-17,o),
(830,-17,cs)
);
}
);
vertWidth = 1000;
width = 1000;
}
);
note = cid01680;
unicode = 12580;
}
{
color = 0;
glyphname = "eng-bopomofo";
layers = (
{
background = {
shapes = (
{
closed = 1;
nodes = (
(250,12,l),
(371,190,o),
(497,428,o),
(593,672,c),
(488,703,l),
(401,455,o),
(256,190,o),
(209,123,cs),
(165,54,o),
(136,11,o),
(105,1,c),
(119,-25,o),
(139,-75,o),
(145,-95,c),
(193,-81,o),
(265,-85,o),
(899,-64,c),
(895,-43,o),
(892,2,o),
(894,28,c)
);
}
);
};
hints = (
{
horizontal = 1;
place = (16, 84);
place = (16, 84);
type = Stem;
},
{
place = (105, 794);
place = (105, 794);
type = Stem;
}
);
layerId = m01;
shapes = (
{
closed = 1;
nodes = (
(250,12,l),
(371,190,o),
(497,428,o),
(593,672,c),
(488,703,l),
(401,455,o),
(256,190,o),
(209,123,cs),
(165,54,o),
(136,11,o),
(105,1,c),
(119,-25,o),
(139,-75,o),
(145,-95,c),
(193,-81,o),
(265,-85,o),
(899,-64,c),
(895,-43,o),
(892,2,o),
(894,28,c)
);
}
);
vertWidth = 1000;
width = 1000;
}
);
note = cid01681;
unicode = 12581;
}
{
color = 0;
glyphname = "er-bopomofo";
layers = (
{
background = {
shapes = (
{
closed = 1;
nodes = (
(566,714,l),
(566,79,ls),
(566,-48,o),
(600,-93,o),
(716,-93,cs),
(862,-93,ls),
(899,-93,o),
(937,-91,o),
(956,-85,c),
(952,-62,o),
(947,-17,o),
(945,9,c),
(925,4,o),
(892,1,o),
(867,1,cs),
(714,1,ls),
(676,1,o),
(666,18,o),
(666,74,cs),
(666,714,l)
);
},
{
closed = 1;
nodes = (
(305,713,l),
(305,410,ls),
(305,242,o),
(278,61,o),
(51,-56,c),
(72,-74,o),
(104,-112,o),
(117,-135,c),
(372,0,o),
(403,210,o),
(403,410,cs),
(403,713,l)
);
}
);
};
hints = (
{
horizontal = 1;
place = (-13, 94);
place = (-13, 94);
type = Stem;
},
{
place = (305, 98);
place = (305, 98);
type = Stem;
},
{
place = (566, 100);
place = (566, 100);
type = Stem;
}
);
layerId = m01;
shapes = (
{
closed = 1;
nodes = (
(566,714,l),
(566,79,ls),
(566,-48,o),
(600,-93,o),
(716,-93,cs),
(862,-93,ls),
(899,-93,o),
(937,-91,o),
(956,-85,c),
(952,-62,o),
(947,-17,o),
(945,9,c),
(925,4,o),
(892,1,o),
(867,1,cs),
(714,1,ls),
(676,1,o),
(666,18,o),
(666,74,cs),
(666,714,l)
);
},
{
closed = 1;
nodes = (
(305,713,l),
(305,410,ls),
(305,242,o),
(278,61,o),
(51,-56,c),
(72,-74,o),
(104,-112,o),
(117,-135,c),
(372,0,o),
(403,210,o),
(403,410,cs),
(403,713,l)
);
}
);
vertWidth = 1000;
width = 1000;
}
);
note = cid01682;
unicode = 12582;
}
{
color = 0;
glyphname = "i-bopomofo";
layers = (
{
background = {
shapes = (
{
closed = 1;
nodes = (
(116,351,l),
(116,249,l),
(877,249,l),
(877,351,l)
);
}
);
};
hints = (
{
horizontal = 1;
place = (329, 102);
place = (329, 102);
type = Stem;
},
{
place = (116, 761);
place = (116, 761);
type = Stem;
}
);
layerId = m01;
shapes = (
{
closed = 1;
nodes = (
(116,351,l),
(116,249,l),
(877,249,l),
(877,351,l)
);
}
);
vertWidth = 1000;
width = 1000;
}
);
note = cid65342;
unicode = 12583;
}
{
color = 0;
glyphname = "u-bopomofo";
layers = (
{
background = {
shapes = (
{
closed = 1;
nodes = (
(893,-28,l),
(829,65,o),
(727,179,o),
(613,295,c),
(698,411,o),
(773,540,o),
(834,680,c),
(737,711,l),
(684,586,o),
(618,470,o),
(542,365,c),
(444,461,o),
(341,555,o),
(249,635,c),
(178,570,l),
(274,485,o),
(379,384,o),
(477,283,c),
(370,155,o),
(245,48,o),
(107,-31,c),
(129,-50,o),
(165,-91,o),
(179,-113,c),
(314,-28,o),
(438,81,o),
(546,211,c),
(655,94,o),
(750,-19,o),
(809,-110,c)
);
}
);
};
hints = (
{
horizontal = 1;
place = (-33, 824);
place = (-33, 824);
type = Stem;
},
{
place = (107, 786);
place = (107, 786);
type = Stem;
}
);
layerId = m01;
shapes = (
{
closed = 1;
nodes = (
(893,-28,l),
(829,65,o),
(727,179,o),
(613,295,c),
(698,411,o),
(773,540,o),
(834,680,c),
(737,711,l),
(684,586,o),
(618,470,o),
(542,365,c),
(444,461,o),
(341,555,o),
(249,635,c),
(178,570,l),
(274,485,o),
(379,384,o),
(477,283,c),
(370,155,o),
(245,48,o),
(107,-31,c),
(129,-50,o),
(165,-91,o),
(179,-113,c),
(314,-28,o),
(438,81,o),
(546,211,c),
(655,94,o),
(750,-19,o),
(809,-110,c)
);
}
);
vertWidth = 1000;
width = 1000;
}
);
note = cid01684;
unicode = 12584;
}
{
color = 0;
glyphname = "iu-bopomofo";
layers = (
{
background = {
shapes = (
{
closed = 1;
nodes = (
(769,692,l),
(769,22,l),
(243,10,l),
(243,693,l),
(151,693,l),
(151,76,ls),
(151,32,o),
(126,0,o),
(108,-14,c),
(124,-32,o),
(152,-73,o),
(162,-96,c),
(203,-83,o),
(263,-86,o),
(769,-70,c),
(769,-133,l),
(867,-133,l),
(867,692,l)
);
}
);
};
hints = (
{
horizontal = 1;
place = (10, 86);
place = (10, 86);
type = Stem;
},
{
place = (151, 92);
place = (151, 92);
type = Stem;
},
{
place = (769, 98);
place = (769, 98);
type = Stem;
}
);
layerId = m01;
shapes = (
{
closed = 1;
nodes = (
(769,692,l),
(769,22,l),
(243,10,l),
(243,693,l),
(151,693,l),
(151,76,ls),
(151,32,o),
(126,0,o),
(108,-14,c),
(124,-32,o),
(152,-73,o),
(162,-96,c),
(203,-83,o),
(263,-86,o),
(769,-70,c),
(769,-133,l),
(867,-133,l),
(867,692,l)
);
}
);
vertWidth = 1000;
width = 1000;
}
);
note = cid01685;
unicode = 12585;
}
{
color = 0;
glyphname = "v-bopomofo";
layers = (
{
background = {
shapes = (
{
closed = 1;
nodes = (
(904,580,l),
(904,674,l),
(91,674,l),
(91,580,l),
(351,580,l),
(342,347,o),
(319,83,o),
(68,-51,c),
(91,-68,o),
(119,-100,o),
(133,-124,c),
(315,-21,o),
(389,146,o),
(422,324,c),
(697,324,l),
(685,105,o),
(670,8,o),
(644,-15,cs),
(633,-26,o),
(621,-28,o),
(599,-27,cs),
(572,-27,o),
(504,-27,o),
(435,-21,c),
(453,-46,o),
(466,-84,o),
(467,-111,c),
(533,-114,o),
(599,-115,o),
(635,-112,cs),
(675,-109,o),
(703,-100,o),
(727,-72,cs),
(765,-32,o),
(781,80,o),
(796,372,cs),
(797,385,o),
(797,414,o),
(797,414,c),
(435,414,l),
(441,470,o),
(445,525,o),
(447,580,c)
);
}
);
};
hints = (
{
horizontal = 1;
place = (-31, 84);
place = (-31, 84);
type = Stem;
},
{
horizontal = 1;
place = (404, 90);
place = (404, 90);
type = Stem;
},
{
horizontal = 1;
place = (660, 94);
place = (660, 94);
type = Stem;
},
{
place = (351, 84);
place = (351, 84);
type = Stem;
},
{
place = (697, 100);
place = (697, 100);
type = Stem;
}
);
layerId = m01;
shapes = (
{
closed = 1;
nodes = (
(904,580,l),
(904,674,l),
(91,674,l),
(91,580,l),
(351,580,l),
(342,347,o),
(319,83,o),
(68,-51,c),
(91,-68,o),
(119,-100,o),
(133,-124,c),
(315,-21,o),
(389,146,o),
(422,324,c),
(697,324,l),
(685,105,o),
(670,8,o),
(644,-15,cs),
(633,-26,o),
(621,-28,o),
(599,-27,cs),
(572,-27,o),
(504,-27,o),
(435,-21,c),
(453,-46,o),
(466,-84,o),
(467,-111,c),
(533,-114,o),
(599,-115,o),
(635,-112,cs),
(675,-109,o),
(703,-100,o),
(727,-72,cs),
(765,-32,o),
(781,80,o),
(796,372,cs),
(797,385,o),
(797,414,o),
(797,414,c),
(435,414,l),
(441,470,o),
(445,525,o),
(447,580,c)
);
}
);
vertWidth = 1000;
width = 1000;
}
);
note = cid01686;
unicode = 12586;
}
{
color = 0;
glyphname = "ng-bopomofo";
layers = (
{
background = {
shapes = (
{
closed = 1;
nodes = (
(705,10,ls),
(670,10,o),
(662,25,o),
(662,74,cs),
(662,555,l),
(915,555,l),
(915,649,l),
(86,649,l),
(86,555,l),
(307,555,l),
(307,421,ls),
(307,268,o),
(284,84,o),
(57,-41,c),
(77,-57,o),
(109,-93,o),
(121,-115,c),
(373,25,o),
(402,238,o),
(402,420,cs),
(402,555,l),
(567,555,l),
(567,78,ls),
(567,-40,o),
(597,-81,o),
(708,-81,cs),
(856,-81,ls),
(893,-81,o),
(929,-79,o),
(947,-73,c),
(943,-51,o),
(939,-8,o),
(937,17,c),
(918,13,o),
(885,10,o),
(860,10,cs)
);
}
);
};
hints = (
{
horizontal = 1;
place = (-1, 91);
place = (-1, 91);
type = Stem;
},
{
horizontal = 1;
place = (635, 94);
place = (635, 94);
type = Stem;
},
{
place = (307, 95);
place = (307, 95);
type = Stem;
},
{
place = (567, 95);
place = (567, 95);
type = Stem;
}
);
layerId = m01;
shapes = (
{
closed = 1;
nodes = (
(705,10,ls),
(670,10,o),
(662,25,o),
(662,74,cs),
(662,555,l),
(915,555,l),
(915,649,l),
(86,649,l),
(86,555,l),
(307,555,l),
(307,421,ls),
(307,268,o),
(284,84,o),
(57,-41,c),
(77,-57,o),
(109,-93,o),
(121,-115,c),
(373,25,o),
(402,238,o),
(402,420,cs),
(402,555,l),
(567,555,l),
(567,78,ls),
(567,-40,o),
(597,-81,o),
(708,-81,cs),
(856,-81,ls),
(893,-81,o),
(929,-79,o),
(947,-73,c),
(943,-51,o),
(939,-8,o),
(937,17,c),
(918,13,o),
(885,10,o),
(860,10,cs)
);
}
);
vertWidth = 1000;
width = 1000;
}
);
note = cid01687;
unicode = 12587;
}
{
color = 0;
glyphname = "gn-bopomofo";
layers = (
{
background = {
shapes = (
{
closed = 1;
nodes = (
(896,573,l),
(602,573,l),
(591,618,o),
(566,686,o),
(544,739,c),
(445,720,l),
(463,675,o),
(482,617,o),
(493,573,c),
(163,573,l),
(163,317,ls),
(163,200,o),
(154,52,o),
(55,-52,c),
(75,-65,o),
(114,-102,o),
(128,-121,c),
(241,-5,o),
(261,180,o),
(261,316,cs),
(261,479,l),
(896,479,l)
);
}
);
};
hints = (
{
horizontal = 1;
place = (559, 94);
place = (559, 94);
type = Stem;
},
{
place = (163, 98);
place = (163, 98);
type = Stem;
}
);
layerId = m01;
shapes = (
{
closed = 1;
nodes = (
(896,573,l),
(602,573,l),
(591,618,o),
(566,686,o),
(544,739,c),
(445,720,l),
(463,675,o),
(482,617,o),
(493,573,c),
(163,573,l),
(163,317,ls),
(163,200,o),
(154,52,o),
(55,-52,c),
(75,-65,o),
(114,-102,o),
(128,-121,c),
(241,-5,o),
(261,180,o),
(261,316,cs),
(261,479,l),
(896,479,l)
);
}
);
vertWidth = 1000;
width = 1000;
}
);
note = cid01688;
unicode = 12588;
}
{
color = 0;
glyphname = "ih-bopomofo";
layers = (
{
background = {
shapes = (
{
closed = 1;
nodes = (
(943,577,l),
(943,670,l),
(58,670,l),
(58,577,l),
(453,577,l),
(453,444,l),
(153,444,l),
(153,-21,l),
(248,-21,l),
(248,352,l),
(453,352,l),
(453,-138,l),
(550,-138,l),
(550,352,l),
(755,352,l),
(755,-11,l),
(855,-11,l),
(855,444,l),
(550,444,l),
(550,577,l)
);
}
);
};
hints = (
{
horizontal = 1;
place = (432, 92);
place = (432, 92);
type = Stem;
},
{
horizontal = 1;
place = (657, 93);
place = (657, 93);
type = Stem;
},
{
place = (153, 95);
place = (153, 95);
type = Stem;
},
{
place = (453, 97);
place = (453, 97);
type = Stem;
},
{
place = (755, 100);
place = (755, 100);
type = Stem;
}
);
layerId = m01;
shapes = (
{
closed = 1;
nodes = (
(943,577,l),
(943,670,l),
(58,670,l),
(58,577,l),
(453,577,l),
(453,444,l),
(153,444,l),
(153,-21,l),
(248,-21,l),
(248,352,l),
(453,352,l),
(453,-138,l),
(550,-138,l),
(550,352,l),
(755,352,l),
(755,-11,l),
(855,-11,l),
(855,444,l),
(550,444,l),
(550,577,l)
);
}
);
vertWidth = 1000;
width = 1000;
}
);
note = cid01689;
unicode = 12589;
}
{
color = 0;
glyphname = "oDotabove-bopomofo";
layers = (
{
background = {
shapes = (
{
closed = 1;
nodes = (
(544,617,o),
(576,649,o),
(576,688,cs),
(576,728,o),
(544,760,o),
(505,760,cs),
(466,760,o),
(434,728,o),
(434,688,cs),
(434,649,o),
(466,617,o),
(505,617,cs)
);
},
{
closed = 1;
nodes = (
(249,253,l),
(566,253,l),
(566,474,l),
(931,474,l),
(931,565,l),
(73,565,l),
(73,474,l),
(467,474,l),
(467,339,l),
(154,339,l),
(154,55,ls),
(154,-63,o),
(204,-96,o),
(341,-96,cs),
(719,-96,ls),
(784,-96,o),
(859,-94,o),
(886,-88,c),
(882,-65,o),
(877,-24,o),
(875,2,c),
(838,-4,o),
(765,-7,o),
(714,-7,cs),
(329,-7,ls),
(264,-7,o),
(249,10,o),
(249,52,cs)
);
}
);
};
hints = (
{
horizontal = 1;
place = (-16, 89);
place = (-16, 89);
type = Stem;
},
{
horizontal = 1;
place = (333, 86);
place = (333, 86);
type = Stem;
},
{
horizontal = 1;
place = (554, 91);
place = (554, 91);
type = Stem;
},
{
horizontal = 1;
place = (697, 143);
place = (697, 143);
type = Stem;
},
{
place = (154, 95);
place = (154, 95);
type = Stem;
},
{
place = (434, 142);
place = (434, 142);
type = Stem;
},
{
place = (467, 99);
place = (467, 99);
type = Stem;
}
);
layerId = m01;
shapes = (
{
closed = 1;
nodes = (
(544,617,o),
(576,649,o),
(576,688,cs),
(576,728,o),
(544,760,o),
(505,760,cs),
(466,760,o),
(434,728,o),
(434,688,cs),
(434,649,o),
(466,617,o),
(505,617,cs)
);
},
{
closed = 1;
nodes = (
(249,253,l),
(566,253,l),
(566,474,l),
(931,474,l),
(931,565,l),
(73,565,l),
(73,474,l),
(467,474,l),
(467,339,l),
(154,339,l),
(154,55,ls),
(154,-63,o),
(204,-96,o),
(341,-96,cs),
(719,-96,ls),
(784,-96,o),
(859,-94,o),
(886,-88,c),
(882,-65,o),
(877,-24,o),
(875,2,c),
(838,-4,o),
(765,-7,o),
(714,-7,cs),
(329,-7,ls),
(264,-7,o),
(249,10,o),
(249,52,cs)
);
}
);
vertWidth = 1000;
width = 1000;
}
);
note = cid01690;
unicode = 12590;
}
{
color = 0;
glyphname = "nn-bopomofo";
layers = (
{
background = {
shapes = (
{
closed = 1;
nodes = (
(431,401,l),
(515,468,o),
(604,553,o),
(689,646,c),
(624,694,l),
(602,685,l),
(146,685,l),
(146,594,l),
(518,594,l),
(449,518,o),
(375,455,o),
(348,435,cs),
(314,407,o),
(279,385,o),
(255,380,c),
(268,358,o),
(287,316,o),
(293,297,c),
(300,304,o),
(323,308,o),
(354,309,c),
(354,-131,l),
(450,-131,l),
(450,310,l),
(767,310,l),
(747,105,o),
(723,16,o),
(695,-10,cs),
(683,-21,o),
(672,-23,o),
(653,-23,cs),
(631,-23,o),
(581,-22,o),
(529,-17,c),
(545,-42,o),
(555,-80,o),
(557,-106,c),
(613,-109,o),
(665,-110,o),
(694,-107,cs),
(730,-103,o),
(753,-95,o),
(777,-69,cs),
(817,-29,o),
(842,83,o),
(869,359,cs),
(871,372,o),
(873,401,o),
(873,401,c)
);
}
);
};
hints = (
{
horizontal = 1;
place = (-26, 83);
place = (-26, 83);
type = Stem;
},
{
horizontal = 1;
place = (390, 91);
place = (390, 91);
type = Stem;
},
{
horizontal = 1;
place = (674, 91);
place = (674, 91);
type = Stem;
},
{
place = (354, 96);
place = (354, 96);
type = Stem;
}
);
layerId = m01;
shapes = (
{
closed = 1;
nodes = (
(431,401,l),
(515,468,o),
(604,553,o),
(689,646,c),
(624,694,l),
(602,685,l),
(146,685,l),
(146,594,l),
(518,594,l),
(449,518,o),
(375,455,o),
(348,435,cs),
(314,407,o),
(279,385,o),
(255,380,c),
(268,358,o),
(287,316,o),
(293,297,c),
(300,304,o),
(323,308,o),
(354,309,c),
(354,-131,l),
(450,-131,l),
(450,310,l),
(767,310,l),
(747,105,o),
(723,16,o),
(695,-10,cs),
(683,-21,o),
(672,-23,o),
(653,-23,cs),
(631,-23,o),
(581,-22,o),
(529,-17,c),
(545,-42,o),
(555,-80,o),
(557,-106,c),
(613,-109,o),
(665,-110,o),
(694,-107,cs),
(730,-103,o),
(753,-95,o),
(777,-69,cs),
(817,-29,o),
(842,83,o),
(869,359,cs),
(871,372,o),
(873,401,o),
(873,401,c)
);
}
);
vertWidth = 1000;
width = 1000;
}
);
note = cid01691;
unicode = 12591;
}
